# Blender 4.3.0
# www.blender.org
o Icosphere
v -0.000001 -1.258211 -0.000000
v 1.038577 -0.437312 0.754562
v -0.396694 -0.437313 1.220918
v -1.283751 -0.437306 -0.000000
v -0.396694 -0.437313 -1.220918
v 1.038577 -0.437312 -0.754562
v 0.276629 0.539104 0.851390
v -0.724238 0.539104 0.526183
v -0.724238 0.539104 -0.526183
v 0.276629 0.539104 -0.851390
v 0.895206 0.539100 -0.000000
v 0.000000 1.202802 0.000000
v -0.334164 -0.945053 1.028467
v -0.233169 -1.182050 0.717632
v -0.111388 -1.241867 0.342820
v 0.291620 -1.241867 0.211873
v 0.610456 -1.182050 0.443517
v 0.874868 -0.945053 0.635622
v 0.763482 -0.550858 0.978447
v 0.377289 -0.573328 1.161156
v -0.042541 -0.550858 1.240344
v 1.166492 -0.550856 -0.423748
v 1.220915 -0.573325 -0.000000
v 1.166492 -0.550856 0.423748
v 0.291620 -1.241867 -0.211873
v 0.610456 -1.182050 -0.443517
v 0.874868 -0.945053 -0.635622
v -1.081399 -0.945048 -0.000000
v -0.754569 -1.182048 -0.000000
v -0.360466 -1.241866 -0.000000
v -0.694634 -0.550857 1.028469
v -0.987743 -0.573326 0.717634
v -1.192789 -0.550854 0.342821
v -0.334164 -0.945053 -1.028467
v -0.233169 -1.182050 -0.717632
v -0.111388 -1.241867 -0.342820
v -1.192789 -0.550854 -0.342821
v -0.987743 -0.573325 -0.717634
v -0.694634 -0.550857 -1.028469
v -0.042541 -0.550858 -1.240344
v 0.377289 -0.573328 -1.161156
v 0.763482 -0.550858 -0.978447
v 1.007730 0.362288 0.155504
v 1.144899 0.168129 0.371995
v 1.175453 -0.110892 0.604810
v 1.175453 -0.110892 -0.604810
v 1.144899 0.168129 -0.371995
v 1.007730 0.362288 -0.155504
v 0.163507 0.362290 1.006461
v -0.000000 0.168128 1.203816
v -0.211978 -0.110892 1.304819
v 0.938451 -0.110893 0.931017
v 0.707586 0.168128 0.973907
v 0.459298 0.362289 0.910352
v -0.906678 0.362290 0.466516
v -1.144902 0.168130 0.371995
v -1.306464 -0.110888 0.201602
v -0.595454 -0.110894 1.180220
v -0.707586 0.168128 0.973908
v -0.723866 0.362289 0.718132
v -0.723866 0.362289 -0.718132
v -0.707586 0.168128 -0.973907
v -0.595454 -0.110894 -1.180220
v -1.306464 -0.110888 -0.201602
v -1.144902 0.168130 -0.371995
v -0.906678 0.362290 -0.466516
v 0.459298 0.362289 -0.910352
v 0.707586 0.168128 -0.973907
v 0.938451 -0.110893 -0.931017
v -0.211978 -0.110892 -1.304819
v -0.000000 0.168129 -1.203816
v 0.163507 0.362290 -1.006461
v 0.831056 0.604176 0.238855
v 0.688789 0.633626 0.500433
v 0.483975 0.604179 0.716569
v 0.029639 0.604180 0.864190
v -0.263098 0.633628 0.809717
v -0.531945 0.604179 0.681717
v -0.812735 0.604178 0.295240
v -0.851389 0.633626 -0.000000
v -0.812735 0.604178 -0.295240
v -0.531945 0.604179 -0.681717
v -0.263098 0.633628 -0.809717
v 0.029639 0.604180 -0.864190
v 0.483975 0.604179 -0.716569
v 0.688789 0.633626 -0.500433
v 0.831056 0.604176 -0.238855
v 0.077607 1.164252 0.238853
v 0.162456 1.023169 0.499995
v 0.232822 0.790866 0.716563
v 0.753442 0.790860 0.000000
v 0.525730 1.023166 0.000000
v 0.251147 1.164251 0.000000
v -0.203181 1.164252 0.147618
v -0.425323 1.023169 0.309011
v -0.609547 0.790865 0.442856
v -0.203181 1.164252 -0.147618
v -0.425323 1.023169 -0.309011
v -0.609547 0.790865 -0.442856
v 0.077607 1.164252 -0.238853
v 0.162456 1.023169 -0.499995
v 0.232822 0.790866 -0.716563
v 0.361800 1.075821 -0.262863
v 0.638194 0.870360 -0.262864
v 0.447209 0.870362 -0.525728
v -0.138197 1.075822 -0.425319
v -0.052790 0.870362 -0.688185
v -0.361804 0.870362 -0.587778
v -0.447210 1.075821 0.000000
v -0.670817 0.870361 -0.162457
v -0.670817 0.870361 0.162457
v -0.138197 1.075822 0.425319
v -0.361804 0.870362 0.587778
v -0.052790 0.870362 0.688185
v 0.361800 1.075821 0.262863
v 0.447209 0.870362 0.525728
v 0.638194 0.870360 0.262864
v 0.923182 0.414877 -0.455613
v 1.006433 0.201289 -0.731210
v 0.718596 0.414877 -0.737201
v -0.148041 0.414878 -1.018789
v -0.384422 0.201289 -1.183130
v -0.479065 0.414876 -0.911231
v -1.014676 0.414879 -0.174028
v -1.244019 0.201292 0.000000
v -1.014675 0.414879 0.174028
v -0.479066 0.414876 0.911231
v -0.384423 0.201288 1.183130
v -0.148042 0.414878 1.018790
v 0.718596 0.414876 0.737202
v 1.006433 0.201287 0.731212
v 0.923183 0.414876 0.455615
v 0.366908 0.154537 -1.129227
v 0.601165 -0.162931 -1.143475
v 0.185772 -0.162930 -1.278447
v -0.960581 0.154538 -0.697899
v -0.901742 -0.162930 -0.925094
v -1.158472 -0.162928 -0.571738
v -0.960581 0.154538 0.697899
v -1.158472 -0.162928 0.571738
v -0.901742 -0.162930 0.925094
v 0.366908 0.154537 1.129227
v 0.185772 -0.162930 1.278447
v 0.601165 -0.162931 1.143475
v 1.187341 0.154538 -0.000000
v 1.273282 -0.162928 0.218382
v 1.273282 -0.162928 -0.218382
v 0.519288 -1.015509 -0.843626
v 0.198350 -1.204373 -0.610454
v 0.075766 -1.015508 -0.987738
v -0.641872 -1.015508 -0.754564
v -0.519286 -1.204373 -0.377281
v -0.915987 -1.015508 -0.377281
v -0.915987 -1.015507 0.377282
v -0.519286 -1.204373 0.377283
v -0.641872 -1.015507 0.754567
v 0.962808 -1.015508 -0.233171
v 0.962809 -1.015508 0.233172
v 0.641871 -1.204373 0.000001
v 0.075768 -1.015509 0.987737
v 0.198353 -1.204373 0.610453
v 0.519290 -1.015508 0.843626
vn -0.0000 -1.0000 -0.0000
vn 0.7860 -0.2369 0.5710
vn -0.3002 -0.2369 0.9240
vn -0.9715 -0.2369 -0.0000
vn -0.3002 -0.2369 -0.9240
vn 0.7860 -0.2369 -0.5710
vn 0.2613 0.5337 0.8043
vn -0.6842 0.5337 0.4971
vn -0.6842 0.5337 -0.4971
vn 0.2613 0.5337 -0.8043
vn 0.8457 0.5337 -0.0000
vn -0.0000 1.0000 -0.0000
vn -0.2491 -0.5918 0.7666
vn -0.1247 -0.9149 0.3838
vn -0.0302 -0.9952 0.0930
vn 0.0791 -0.9952 0.0575
vn 0.3265 -0.9149 0.2372
vn 0.6521 -0.5918 0.4738
vn 0.5448 -0.3055 0.7810
vn 0.2929 -0.3191 0.9013
vn 0.0183 -0.3055 0.9520
vn 0.9111 -0.3055 -0.2768
vn 0.9477 -0.3191 -0.0000
vn 0.9111 -0.3055 0.2768
vn 0.0791 -0.9952 -0.0575
vn 0.3265 -0.9149 -0.2372
vn 0.6521 -0.5918 -0.4738
vn -0.8061 -0.5918 -0.0000
vn -0.4036 -0.9149 -0.0000
vn -0.0978 -0.9952 -0.0000
vn -0.5744 -0.3055 0.7594
vn -0.7667 -0.3191 0.5570
vn -0.8998 -0.3055 0.3116
vn -0.2491 -0.5918 -0.7666
vn -0.1247 -0.9149 -0.3838
vn -0.0302 -0.9952 -0.0930
vn -0.8998 -0.3055 -0.3116
vn -0.7667 -0.3191 -0.5570
vn -0.5744 -0.3055 -0.7594
vn 0.0183 -0.3055 -0.9520
vn 0.2929 -0.3191 -0.9013
vn 0.5448 -0.3055 -0.7810
vn 0.7955 0.6027 0.0624
vn 0.8686 0.4640 0.1741
vn 0.9135 0.0825 0.3983
vn 0.9135 0.0825 -0.3983
vn 0.8686 0.4640 -0.1741
vn 0.7955 0.6027 -0.0624
vn 0.1865 0.6027 0.7759
vn 0.1029 0.4640 0.8798
vn -0.0965 0.0825 0.9919
vn 0.6611 0.0825 0.7457
vn 0.4339 0.4640 0.7723
vn 0.3052 0.6027 0.7373
vn -0.6803 0.6027 0.4171
vn -0.8050 0.4640 0.3697
vn -0.9732 0.0825 0.2147
vn -0.5049 0.0825 0.8592
vn -0.6004 0.4640 0.6513
vn -0.6069 0.6027 0.5181
vn -0.6069 0.6027 -0.5181
vn -0.6004 0.4640 -0.6513
vn -0.5049 0.0825 -0.8592
vn -0.9732 0.0825 -0.2147
vn -0.8050 0.4640 -0.3697
vn -0.6803 0.6027 -0.4171
vn 0.3052 0.6027 -0.7373
vn 0.4339 0.4640 -0.7723
vn 0.6611 0.0825 -0.7457
vn -0.0965 0.0825 -0.9919
vn 0.1029 0.4640 -0.8798
vn 0.1865 0.6027 -0.7759
vn 0.7993 0.5684 0.1950
vn 0.6443 0.6048 0.4681
vn 0.4324 0.5684 0.7000
vn 0.0616 0.5684 0.8205
vn -0.2461 0.6048 0.7574
vn -0.5321 0.5684 0.6276
vn -0.7613 0.5684 0.3121
vn -0.7964 0.6048 -0.0000
vn -0.7613 0.5684 -0.3121
vn -0.5321 0.5684 -0.6276
vn -0.2461 0.6048 -0.7574
vn 0.0616 0.5684 -0.8205
vn 0.4324 0.5684 -0.7000
vn 0.6443 0.6048 -0.4681
vn 0.7993 0.5684 -0.1950
vn 0.0955 0.9511 0.2938
vn 0.1844 0.8025 0.5674
vn 0.2481 0.5961 0.7636
vn 0.8029 0.5961 -0.0000
vn 0.5966 0.8025 -0.0000
vn 0.3090 0.9511 -0.0000
vn -0.2500 0.9511 0.1816
vn -0.4826 0.8025 0.3507
vn -0.6496 0.5961 0.4719
vn -0.2500 0.9511 -0.1816
vn -0.4826 0.8025 -0.3507
vn -0.6496 0.5961 -0.4719
vn 0.0955 0.9511 -0.2938
vn 0.1844 0.8025 -0.5674
vn 0.2481 0.5961 -0.7636
vn 0.4237 0.8519 -0.3078
vn 0.6905 0.6621 -0.2914
vn 0.4905 0.6621 -0.5666
vn -0.1618 0.8519 -0.4981
vn -0.0638 0.6621 -0.7467
vn -0.3873 0.6621 -0.6416
vn -0.5237 0.8519 -0.0000
vn -0.7299 0.6621 -0.1701
vn -0.7299 0.6621 0.1701
vn -0.1618 0.8519 0.4981
vn -0.3873 0.6621 0.6416
vn -0.0638 0.6621 0.7467
vn 0.4237 0.8519 0.3078
vn 0.4905 0.6621 0.5666
vn 0.6905 0.6621 0.2914
vn 0.7157 0.6422 -0.2747
vn 0.7113 0.4763 -0.5168
vn 0.4824 0.6422 -0.5958
vn -0.0401 0.6422 -0.7655
vn -0.2717 0.4763 -0.8362
vn -0.4175 0.6422 -0.6428
vn -0.7404 0.6422 -0.1985
vn -0.8793 0.4763 -0.0000
vn -0.7404 0.6422 0.1985
vn -0.4175 0.6422 0.6428
vn -0.2717 0.4763 0.8362
vn -0.0401 0.6422 0.7655
vn 0.4824 0.6422 0.5958
vn 0.7113 0.4763 0.5168
vn 0.7157 0.6422 0.2747
vn 0.2742 0.4610 -0.8440
vn 0.4213 0.0600 -0.9049
vn 0.1910 0.0600 -0.9797
vn -0.7179 0.4610 -0.5216
vn -0.7304 0.0600 -0.6803
vn -0.8728 0.0600 -0.4844
vn -0.7179 0.4610 0.5216
vn -0.8728 0.0600 0.4844
vn -0.7304 0.0600 0.6803
vn 0.2742 0.4610 0.8440
vn 0.1910 0.0600 0.9797
vn 0.4213 0.0600 0.9049
vn 0.8874 0.4610 -0.0000
vn 0.9908 0.0600 0.1211
vn 0.9908 0.0600 -0.1211
vn 0.3458 -0.6798 -0.6468
vn 0.0987 -0.9476 -0.3038
vn 0.1004 -0.6798 -0.7265
vn -0.5083 -0.6798 -0.5287
vn -0.2585 -0.9476 -0.1878
vn -0.6599 -0.6798 -0.3200
vn -0.6599 -0.6798 0.3200
vn -0.2585 -0.9476 0.1878
vn -0.5083 -0.6798 0.5287
vn 0.7220 -0.6798 -0.1290
vn 0.7220 -0.6798 0.1290
vn 0.3195 -0.9476 -0.0000
vn 0.1004 -0.6798 0.7265
vn 0.0987 -0.9476 0.3038
vn 0.3458 -0.6798 0.6468
vt 0.181819 0.000000
vt 0.204546 0.039365
vt 0.159092 0.039365
vt 0.272728 0.157461
vt 0.295455 0.118096
vt 0.318182 0.157461
vt 0.909091 0.000000
vt 0.931818 0.039365
vt 0.886364 0.039365
vt 0.727273 0.000000
vt 0.750000 0.039365
vt 0.704546 0.039365
vt 0.545455 0.000000
vt 0.568182 0.039365
vt 0.522728 0.039365
vt 0.295455 0.196826
vt 0.090910 0.157461
vt 0.136364 0.157461
vt 0.113637 0.196826
vt 0.818182 0.157461
vt 0.863636 0.157461
vt 0.840909 0.196826
vt 0.636364 0.157461
vt 0.681818 0.157461
vt 0.659091 0.196826
vt 0.454546 0.157461
vt 0.500000 0.157461
vt 0.477273 0.196826
vt 0.250001 0.196826
vt 0.068182 0.196826
vt 0.795455 0.196826
vt 0.613637 0.196826
vt 0.431819 0.196826
vt 0.181819 0.314921
vt 0.227273 0.314921
vt 0.204546 0.354286
vt 0.000000 0.314921
vt 0.045455 0.314921
vt 0.022727 0.354286
vt 0.727273 0.314921
vt 0.772727 0.314921
vt 0.750000 0.354286
vt 0.545455 0.314921
vt 0.590909 0.314921
vt 0.568182 0.354286
vt 0.363637 0.314921
vt 0.409091 0.314921
vt 0.386364 0.354286
vt 0.431819 0.433017
vt 0.477273 0.433017
vt 0.454546 0.472382
vt 0.409091 0.393651
vt 0.454546 0.393651
vt 0.431819 0.354286
vt 0.500000 0.393651
vt 0.477273 0.354286
vt 0.522728 0.354286
vt 0.454546 0.314921
vt 0.500000 0.314921
vt 0.613637 0.433017
vt 0.659091 0.433017
vt 0.636364 0.472382
vt 0.590909 0.393651
vt 0.636364 0.393651
vt 0.613637 0.354286
vt 0.681818 0.393651
vt 0.659091 0.354286
vt 0.704546 0.354286
vt 0.636364 0.314921
vt 0.681818 0.314921
vt 0.795455 0.433017
vt 0.840909 0.433017
vt 0.818182 0.472382
vt 0.772727 0.393651
vt 0.818182 0.393651
vt 0.795455 0.354286
vt 0.863636 0.393651
vt 0.840909 0.354286
vt 0.886364 0.354286
vt 0.818182 0.314921
vt 0.863636 0.314921
vt 0.909091 0.314921
vt 0.068182 0.433017
vt 0.113637 0.433017
vt 0.090910 0.472382
vt 0.045455 0.393651
vt 0.090910 0.393651
vt 0.068182 0.354286
vt 0.136365 0.393651
vt 0.113637 0.354286
vt 0.159092 0.354286
vt 0.090909 0.314921
vt 0.136364 0.314921
vt 0.250001 0.433017
vt 0.295455 0.433017
vt 0.272728 0.472382
vt 0.227273 0.393651
vt 0.272728 0.393651
vt 0.250001 0.354286
vt 0.318182 0.393651
vt 0.295455 0.354286
vt 0.340910 0.354286
vt 0.272728 0.314921
vt 0.318182 0.314921
vt 0.386364 0.275556
vt 0.409091 0.236191
vt 0.431819 0.275556
vt 0.454546 0.236191
vt 0.477273 0.275556
vt 0.500000 0.236191
vt 0.522728 0.275556
vt 0.568182 0.275556
vt 0.590909 0.236191
vt 0.613637 0.275556
vt 0.636364 0.236191
vt 0.659091 0.275556
vt 0.681818 0.236191
vt 0.704546 0.275556
vt 0.750000 0.275556
vt 0.772727 0.236191
vt 0.795455 0.275556
vt 0.818182 0.236191
vt 0.840909 0.275556
vt 0.863636 0.236191
vt 0.886364 0.275556
vt 0.022727 0.275556
vt 0.045455 0.236191
vt 0.068182 0.275556
vt 0.090910 0.236191
vt 0.113637 0.275556
vt 0.136364 0.236191
vt 0.159092 0.275556
vt 0.204546 0.275556
vt 0.227273 0.236191
vt 0.250001 0.275556
vt 0.272728 0.236191
vt 0.295455 0.275556
vt 0.318182 0.236191
vt 0.340910 0.275556
vt 0.545455 0.236191
vt 0.522728 0.196826
vt 0.568182 0.196826
vt 0.545455 0.157461
vt 0.590909 0.157461
vt 0.727273 0.236191
vt 0.704546 0.196826
vt 0.750000 0.196826
vt 0.727273 0.157461
vt 0.772727 0.157461
vt 0.931818 0.275556
vt 0.909091 0.236191
vt 0.886364 0.196826
vt 0.954545 0.236191
vt 0.931818 0.196826
vt 0.977273 0.196826
vt 0.909091 0.157461
vt 0.954545 0.157461
vt 1.000000 0.157461
vt 0.181819 0.236191
vt 0.159092 0.196826
vt 0.204546 0.196826
vt 0.181819 0.157461
vt 0.227274 0.157461
vt 0.363637 0.236191
vt 0.340910 0.196826
vt 0.386364 0.196826
vt 0.363637 0.157461
vt 0.409092 0.157461
vt 0.477273 0.118096
vt 0.500000 0.078731
vt 0.522728 0.118096
vt 0.545455 0.078731
vt 0.568182 0.118096
vt 0.590909 0.078731
vt 0.613637 0.118096
vt 0.659091 0.118096
vt 0.681818 0.078731
vt 0.704546 0.118096
vt 0.727273 0.078731
vt 0.750000 0.118096
vt 0.772727 0.078731
vt 0.795455 0.118096
vt 0.840909 0.118096
vt 0.863636 0.078731
vt 0.886364 0.118096
vt 0.909091 0.078731
vt 0.931818 0.118096
vt 0.954545 0.078731
vt 0.977273 0.118096
vt 0.431819 0.118096
vt 0.386364 0.118096
vt 0.340910 0.118096
vt 0.409091 0.078731
vt 0.363637 0.078730
vt 0.386364 0.039365
vt 0.318182 0.078731
vt 0.340910 0.039365
vt 0.363637 0.000000
vt 0.113637 0.118096
vt 0.136365 0.078731
vt 0.159092 0.118096
vt 0.181819 0.078731
vt 0.204546 0.118096
vt 0.227273 0.078731
vt 0.250001 0.118096
s 1
f 1/1/1 16/2/16 15/3/15
f 2/4/2 18/5/18 24/6/24
f 1/7/1 15/8/15 30/9/30
f 1/10/1 30/11/30 36/12/36
f 1/13/1 36/14/36 25/15/25
f 2/4/2 24/6/24 45/16/45
f 3/17/3 21/18/21 51/19/51
f 4/20/4 33/21/33 57/22/57
f 5/23/5 39/24/39 63/25/63
f 6/26/6 42/27/42 69/28/69
f 2/4/2 45/16/45 52/29/52
f 3/17/3 51/19/51 58/30/58
f 4/20/4 57/22/57 64/31/64
f 5/23/5 63/25/63 70/32/70
f 6/26/6 69/28/69 46/33/46
f 7/34/7 75/35/75 90/36/90
f 8/37/8 78/38/78 96/39/96
f 9/40/9 81/41/81 99/42/99
f 10/43/10 84/44/84 102/45/102
f 11/46/11 87/47/87 91/48/91
f 93/49/93 100/50/100 12/51/12
f 92/52/92 103/53/103 93/49/93
f 91/48/91 104/54/104 92/52/92
f 93/49/93 103/53/103 100/50/100
f 103/53/103 101/55/101 100/50/100
f 92/52/92 104/54/104 103/53/103
f 104/54/104 105/56/105 103/53/103
f 103/53/103 105/56/105 101/55/101
f 105/56/105 102/57/102 101/55/101
f 91/48/91 87/47/87 104/54/104
f 87/47/87 86/58/86 104/54/104
f 104/54/104 86/58/86 105/56/105
f 86/58/86 85/59/85 105/56/105
f 105/56/105 85/59/85 102/57/102
f 85/59/85 10/43/10 102/57/102
f 100/60/100 97/61/97 12/62/12
f 101/63/101 106/64/106 100/60/100
f 102/45/102 107/65/107 101/63/101
f 100/60/100 106/64/106 97/61/97
f 106/64/106 98/66/98 97/61/97
f 101/63/101 107/65/107 106/64/106
f 107/65/107 108/67/108 106/64/106
f 106/64/106 108/67/108 98/66/98
f 108/67/108 99/68/99 98/66/98
f 102/45/102 84/44/84 107/65/107
f 84/44/84 83/69/83 107/65/107
f 107/65/107 83/69/83 108/67/108
f 83/69/83 82/70/82 108/67/108
f 108/67/108 82/70/82 99/68/99
f 82/70/82 9/40/9 99/68/99
f 97/71/97 94/72/94 12/73/12
f 98/74/98 109/75/109 97/71/97
f 99/42/99 110/76/110 98/74/98
f 97/71/97 109/75/109 94/72/94
f 109/75/109 95/77/95 94/72/94
f 98/74/98 110/76/110 109/75/109
f 110/76/110 111/78/111 109/75/109
f 109/75/109 111/78/111 95/77/95
f 111/78/111 96/79/96 95/77/95
f 99/42/99 81/41/81 110/76/110
f 81/41/81 80/80/80 110/76/110
f 110/76/110 80/80/80 111/78/111
f 80/80/80 79/81/79 111/78/111
f 111/78/111 79/81/79 96/79/96
f 79/81/79 8/82/8 96/79/96
f 94/83/94 88/84/88 12/85/12
f 95/86/95 112/87/112 94/83/94
f 96/39/96 113/88/113 95/86/95
f 94/83/94 112/87/112 88/84/88
f 112/87/112 89/89/89 88/84/88
f 95/86/95 113/88/113 112/87/112
f 113/88/113 114/90/114 112/87/112
f 112/87/112 114/90/114 89/89/89
f 114/90/114 90/91/90 89/89/89
f 96/39/96 78/38/78 113/88/113
f 78/38/78 77/92/77 113/88/113
f 113/88/113 77/92/77 114/90/114
f 77/92/77 76/93/76 114/90/114
f 114/90/114 76/93/76 90/91/90
f 76/93/76 7/34/7 90/91/90
f 88/94/88 93/95/93 12/96/12
f 89/97/89 115/98/115 88/94/88
f 90/36/90 116/99/116 89/97/89
f 88/94/88 115/98/115 93/95/93
f 115/98/115 92/100/92 93/95/93
f 89/97/89 116/99/116 115/98/115
f 116/99/116 117/101/117 115/98/115
f 115/98/115 117/101/117 92/100/92
f 117/101/117 91/102/91 92/100/92
f 90/36/90 75/35/75 116/99/116
f 75/35/75 74/103/74 116/99/116
f 116/99/116 74/103/74 117/101/117
f 74/103/74 73/104/73 117/101/117
f 117/101/117 73/104/73 91/102/91
f 73/104/73 11/46/11 91/102/91
f 48/105/48 87/47/87 11/46/11
f 47/106/47 118/107/118 48/105/48
f 46/33/46 119/108/119 47/106/47
f 48/105/48 118/107/118 87/47/87
f 118/107/118 86/58/86 87/47/87
f 47/106/47 119/108/119 118/107/118
f 119/108/119 120/109/120 118/107/118
f 118/107/118 120/109/120 86/58/86
f 120/109/120 85/59/85 86/58/86
f 46/33/46 69/28/69 119/108/119
f 69/28/69 68/110/68 119/108/119
f 119/108/119 68/110/68 120/109/120
f 68/110/68 67/111/67 120/109/120
f 120/109/120 67/111/67 85/59/85
f 67/111/67 10/43/10 85/59/85
f 72/112/72 84/44/84 10/43/10
f 71/113/71 121/114/121 72/112/72
f 70/32/70 122/115/122 71/113/71
f 72/112/72 121/114/121 84/44/84
f 121/114/121 83/69/83 84/44/84
f 71/113/71 122/115/122 121/114/121
f 122/115/122 123/116/123 121/114/121
f 121/114/121 123/116/123 83/69/83
f 123/116/123 82/70/82 83/69/83
f 70/32/70 63/25/63 122/115/122
f 63/25/63 62/117/62 122/115/122
f 122/115/122 62/117/62 123/116/123
f 62/117/62 61/118/61 123/116/123
f 123/116/123 61/118/61 82/70/82
f 61/118/61 9/40/9 82/70/82
f 66/119/66 81/41/81 9/40/9
f 65/120/65 124/121/124 66/119/66
f 64/31/64 125/122/125 65/120/65
f 66/119/66 124/121/124 81/41/81
f 124/121/124 80/80/80 81/41/81
f 65/120/65 125/122/125 124/121/124
f 125/122/125 126/123/126 124/121/124
f 124/121/124 126/123/126 80/80/80
f 126/123/126 79/81/79 80/80/80
f 64/31/64 57/22/57 125/122/125
f 57/22/57 56/124/56 125/122/125
f 125/122/125 56/124/56 126/123/126
f 56/124/56 55/125/55 126/123/126
f 126/123/126 55/125/55 79/81/79
f 55/125/55 8/82/8 79/81/79
f 60/126/60 78/38/78 8/37/8
f 59/127/59 127/128/127 60/126/60
f 58/30/58 128/129/128 59/127/59
f 60/126/60 127/128/127 78/38/78
f 127/128/127 77/92/77 78/38/78
f 59/127/59 128/129/128 127/128/127
f 128/129/128 129/130/129 127/128/127
f 127/128/127 129/130/129 77/92/77
f 129/130/129 76/93/76 77/92/77
f 58/30/58 51/19/51 128/129/128
f 51/19/51 50/131/50 128/129/128
f 128/129/128 50/131/50 129/130/129
f 50/131/50 49/132/49 129/130/129
f 129/130/129 49/132/49 76/93/76
f 49/132/49 7/34/7 76/93/76
f 54/133/54 75/35/75 7/34/7
f 53/134/53 130/135/130 54/133/54
f 52/29/52 131/136/131 53/134/53
f 54/133/54 130/135/130 75/35/75
f 130/135/130 74/103/74 75/35/75
f 53/134/53 131/136/131 130/135/130
f 131/136/131 132/137/132 130/135/130
f 130/135/130 132/137/132 74/103/74
f 132/137/132 73/104/73 74/103/74
f 52/29/52 45/16/45 131/136/131
f 45/16/45 44/138/44 131/136/131
f 131/136/131 44/138/44 132/137/132
f 44/138/44 43/139/43 132/137/132
f 132/137/132 43/139/43 73/104/73
f 43/139/43 11/46/11 73/104/73
f 67/111/67 72/112/72 10/43/10
f 68/110/68 133/140/133 67/111/67
f 69/28/69 134/141/134 68/110/68
f 67/111/67 133/140/133 72/112/72
f 133/140/133 71/113/71 72/112/72
f 68/110/68 134/141/134 133/140/133
f 134/141/134 135/142/135 133/140/133
f 133/140/133 135/142/135 71/113/71
f 135/142/135 70/32/70 71/113/71
f 69/28/69 42/27/42 134/141/134
f 42/27/42 41/143/41 134/141/134
f 134/141/134 41/143/41 135/142/135
f 41/143/41 40/144/40 135/142/135
f 135/142/135 40/144/40 70/32/70
f 40/144/40 5/23/5 70/32/70
f 61/118/61 66/119/66 9/40/9
f 62/117/62 136/145/136 61/118/61
f 63/25/63 137/146/137 62/117/62
f 61/118/61 136/145/136 66/119/66
f 136/145/136 65/120/65 66/119/66
f 62/117/62 137/146/137 136/145/136
f 137/146/137 138/147/138 136/145/136
f 136/145/136 138/147/138 65/120/65
f 138/147/138 64/31/64 65/120/65
f 63/25/63 39/24/39 137/146/137
f 39/24/39 38/148/38 137/146/137
f 137/146/137 38/148/38 138/147/138
f 38/148/38 37/149/37 138/147/138
f 138/147/138 37/149/37 64/31/64
f 37/149/37 4/20/4 64/31/64
f 55/125/55 60/150/60 8/82/8
f 56/124/56 139/151/139 55/125/55
f 57/22/57 140/152/140 56/124/56
f 55/125/55 139/151/139 60/150/60
f 139/151/139 59/153/59 60/150/60
f 56/124/56 140/152/140 139/151/139
f 140/152/140 141/154/141 139/151/139
f 139/151/139 141/154/141 59/153/59
f 141/154/141 58/155/58 59/153/59
f 57/22/57 33/21/33 140/152/140
f 33/21/33 32/156/32 140/152/140
f 140/152/140 32/156/32 141/154/141
f 32/156/32 31/157/31 141/154/141
f 141/154/141 31/157/31 58/155/58
f 31/157/31 3/158/3 58/155/58
f 49/132/49 54/133/54 7/34/7
f 50/131/50 142/159/142 49/132/49
f 51/19/51 143/160/143 50/131/50
f 49/132/49 142/159/142 54/133/54
f 142/159/142 53/134/53 54/133/54
f 50/131/50 143/160/143 142/159/142
f 143/160/143 144/161/144 142/159/142
f 142/159/142 144/161/144 53/134/53
f 144/161/144 52/29/52 53/134/53
f 51/19/51 21/18/21 143/160/143
f 21/18/21 20/162/20 143/160/143
f 143/160/143 20/162/20 144/161/144
f 20/162/20 19/163/19 144/161/144
f 144/161/144 19/163/19 52/29/52
f 19/163/19 2/4/2 52/29/52
f 43/139/43 48/105/48 11/46/11
f 44/138/44 145/164/145 43/139/43
f 45/16/45 146/165/146 44/138/44
f 43/139/43 145/164/145 48/105/48
f 145/164/145 47/106/47 48/105/48
f 44/138/44 146/165/146 145/164/145
f 146/165/146 147/166/147 145/164/145
f 145/164/145 147/166/147 47/106/47
f 147/166/147 46/33/46 47/106/47
f 45/16/45 24/6/24 146/165/146
f 24/6/24 23/167/23 146/165/146
f 146/165/146 23/167/23 147/166/147
f 23/167/23 22/168/22 147/166/147
f 147/166/147 22/168/22 46/33/46
f 22/168/22 6/26/6 46/33/46
f 27/169/27 42/27/42 6/26/6
f 26/170/26 148/171/148 27/169/27
f 25/15/25 149/172/149 26/170/26
f 27/169/27 148/171/148 42/27/42
f 148/171/148 41/143/41 42/27/42
f 26/170/26 149/172/149 148/171/148
f 149/172/149 150/173/150 148/171/148
f 148/171/148 150/173/150 41/143/41
f 150/173/150 40/144/40 41/143/41
f 25/15/25 36/14/36 149/172/149
f 36/14/36 35/174/35 149/172/149
f 149/172/149 35/174/35 150/173/150
f 35/174/35 34/175/34 150/173/150
f 150/173/150 34/175/34 40/144/40
f 34/175/34 5/23/5 40/144/40
f 34/176/34 39/24/39 5/23/5
f 35/177/35 151/178/151 34/176/34
f 36/12/36 152/179/152 35/177/35
f 34/176/34 151/178/151 39/24/39
f 151/178/151 38/148/38 39/24/39
f 35/177/35 152/179/152 151/178/151
f 152/179/152 153/180/153 151/178/151
f 151/178/151 153/180/153 38/148/38
f 153/180/153 37/149/37 38/148/38
f 36/12/36 30/11/30 152/179/152
f 30/11/30 29/181/29 152/179/152
f 152/179/152 29/181/29 153/180/153
f 29/181/29 28/182/28 153/180/153
f 153/180/153 28/182/28 37/149/37
f 28/182/28 4/20/4 37/149/37
f 28/183/28 33/21/33 4/20/4
f 29/184/29 154/185/154 28/183/28
f 30/9/30 155/186/155 29/184/29
f 28/183/28 154/185/154 33/21/33
f 154/185/154 32/156/32 33/21/33
f 29/184/29 155/186/155 154/185/154
f 155/186/155 156/187/156 154/185/154
f 154/185/154 156/187/156 32/156/32
f 156/187/156 31/157/31 32/156/32
f 30/9/30 15/8/15 155/186/155
f 15/8/15 14/188/14 155/186/155
f 155/186/155 14/188/14 156/187/156
f 14/188/14 13/189/13 156/187/156
f 156/187/156 13/189/13 31/157/31
f 13/189/13 3/158/3 31/157/31
f 22/168/22 27/190/27 6/26/6
f 23/167/23 157/191/157 22/168/22
f 24/6/24 158/192/158 23/167/23
f 22/168/22 157/191/157 27/190/27
f 157/191/157 26/193/26 27/190/27
f 23/167/23 158/192/158 157/191/157
f 158/192/158 159/194/159 157/191/157
f 157/191/157 159/194/159 26/193/26
f 159/194/159 25/195/25 26/193/26
f 24/6/24 18/5/18 158/192/158
f 18/5/18 17/196/17 158/192/158
f 158/192/158 17/196/17 159/194/159
f 17/196/17 16/197/16 159/194/159
f 159/194/159 16/197/16 25/195/25
f 16/197/16 1/198/1 25/195/25
f 13/199/13 21/18/21 3/17/3
f 14/200/14 160/201/160 13/199/13
f 15/3/15 161/202/161 14/200/14
f 13/199/13 160/201/160 21/18/21
f 160/201/160 20/162/20 21/18/21
f 14/200/14 161/202/161 160/201/160
f 161/202/161 162/203/162 160/201/160
f 160/201/160 162/203/162 20/162/20
f 162/203/162 19/163/19 20/162/20
f 15/3/15 16/2/16 161/202/161
f 16/2/16 17/204/17 161/202/161
f 161/202/161 17/204/17 162/203/162
f 17/204/17 18/205/18 162/203/162
f 162/203/162 18/205/18 19/163/19
f 18/205/18 2/4/2 19/163/19
